<svg version="1.0" xmlns="http://www.w3.org/2000/svg"
 width="300.000000pt" height="300.000000pt" viewBox="0 0 300.000000 300.000000"
 preserveAspectRatio="xMidYMid meet">

<g transform="translate(0.000000,300.000000) scale(0.100000,-0.100000)"
fill="#000000" stroke="none">
<path d="M1492 2211 c-8 -5 -12 -36 -11 -101 1 -81 4 -96 20 -108 25 -17 24
-38 -1 -45 -14 -3 -20 -14 -20 -31 0 -16 -6 -26 -15 -26 -8 0 -15 -4 -15 -10
0 -5 15 -7 34 -5 23 3 36 0 39 -9 3 -8 28 -21 55 -30 31 -11 66 -34 99 -66
l51 -50 -29 -15 c-34 -18 -33 -16 -15 -60 13 -30 20 -35 47 -35 18 0 29 -3 26
-7 -4 -3 2 -12 13 -20 11 -8 20 -20 20 -27 0 -19 28 -28 48 -16 12 6 13 9 3
10 -9 0 -12 9 -9 30 3 22 0 31 -14 36 -12 4 -18 14 -16 32 2 38 -11 72 -28 72
-9 0 -14 11 -14 35 0 44 10 49 145 70 55 9 183 32 285 51 102 18 200 34 218
34 29 0 32 -2 22 -19 -5 -11 -10 -29 -10 -40 0 -14 -6 -21 -18 -21 -10 0 -22
-4 -27 -9 -8 -7 -243 -54 -487 -97 -21 -3 -38 -9 -38 -13 0 -7 89 8 400 68
146 28 182 31 151 12 -7 -5 -11 -13 -7 -19 7 -12 5 -12 -194 -47 -80 -15 -189
-35 -242 -46 -53 -10 -99 -19 -101 -19 -2 0 -2 -11 0 -24 l5 -24 61 15 c34 7
64 18 65 23 2 6 8 10 13 10 6 0 7 -5 4 -10 -4 -7 2 -9 17 -6 12 3 97 19 188
36 91 17 177 33 191 36 25 5 26 8 25 59 -1 43 2 54 14 52 32 -5 38 -16 30 -57
-7 -38 -6 -40 19 -41 55 -2 -232 -64 -571 -124 -28 -5 -37 -12 -41 -31 -5 -28
-7 -28 85 -9 272 55 541 105 546 101 3 -4 -4 -6 -15 -6 -12 0 -23 -5 -25 -11
-2 -6 -19 -14 -38 -18 -22 -4 -36 -13 -38 -25 -4 -16 1 -18 35 -12 80 15 88
16 73 9 -8 -3 -19 -12 -25 -19 -5 -6 -27 -15 -47 -18 -25 -5 -38 -12 -38 -23
0 -11 6 -14 23 -10 40 10 102 17 87 10 -8 -3 -19 -12 -25 -19 -5 -6 -27 -15
-47 -18 -22 -4 -38 -13 -38 -20 0 -11 11 -11 62 0 62 12 89 12 49 -1 -12 -3
-21 -10 -21 -15 0 -5 -19 -13 -42 -17 -58 -12 -66 -38 -8 -28 32 5 41 4 38 -6
-2 -7 -76 -27 -189 -50 -101 -20 -236 -49 -299 -64 -63 -14 -124 -27 -135 -28
-24 -1 -53 -32 -61 -63 -3 -13 -19 -29 -35 -36 -36 -16 -44 -35 -19 -43 11 -4
23 -18 26 -33 10 -49 12 -51 36 -44 18 5 20 7 6 10 -10 2 -18 12 -18 23 0 16
4 18 18 11 11 -6 103 10 285 50 l268 60 20 -23 c10 -12 19 -26 19 -31 0 -20
140 2 170 28 8 7 53 27 98 44 49 19 89 41 97 54 8 11 24 57 37 101 20 70 23
102 23 260 0 123 -4 192 -13 217 -17 48 -99 123 -134 123 -17 0 -23 -4 -18
-10 5 -7 -13 -9 -52 -7 -57 2 -60 1 -47 -15 8 -10 -6 -3 -30 15 -33 24 -47 29
-53 19 -6 -9 -8 -9 -8 1 0 7 -5 10 -10 7 -6 -4 -7 -12 -3 -18 4 -7 0 -7 -10 1
-9 8 -21 11 -27 7 -6 -4 -19 0 -28 8 -29 25 -99 57 -152 68 -48 10 -50 12 -50
45 0 24 -5 34 -15 34 -8 0 -15 5 -15 11 0 8 -4 8 -12 2 -14 -11 -98 -26 -135
-24 -12 0 -25 -3 -28 -8 -3 -6 -22 -8 -43 -5 -30 4 -33 2 -17 -6 16 -8 12 -9
-17 -5 -22 4 -38 2 -38 -4 0 -6 -13 -8 -30 -6 -18 2 -30 -1 -30 -8 0 -8 -4 -7
-12 1 -19 19 -30 14 -18 -8 9 -18 8 -19 -12 -11 -13 5 -22 14 -21 19 2 6 -23
26 -55 45 -91 55 -167 83 -190 68z m567 -178 c-7 -7 -18 -12 -26 -9 -8 3 -11
1 -8 -4 3 -6 2 -10 -4 -10 -20 0 -21 19 0 34 27 18 55 11 38 -11z m184 0 c-7
-2 -19 -2 -25 0 -7 3 -2 5 12 5 14 0 19 -2 13 -5z m12 -24 c-22 -4 -51 -8 -65
-7 l-25 0 25 8 c14 4 43 8 65 8 l40 0 -40 -9z m70 -8 c-12 -10 -145 -34 -152
-27 -7 6 30 16 100 26 28 4 54 8 57 9 2 0 0 -3 -5 -8z m35 -30 c-8 -5 -49 -14
-90 -21 -41 -6 -84 -14 -95 -17 -17 -4 -18 -3 -7 8 13 15 112 36 172 37 24 1
30 -1 20 -7z m30 -30 c-8 -5 -60 -16 -115 -25 -55 -9 -120 -21 -145 -27 -25
-5 -119 -23 -208 -38 -124 -21 -164 -25 -172 -16 -7 8 -6 12 3 13 6 0 73 12
147 26 74 14 171 30 215 36 44 6 112 17 150 25 83 15 147 18 125 6z m234 -147
c3 -26 6 -62 6 -81 0 -33 -1 -33 -36 -29 -20 2 -40 10 -45 17 -12 19 -11 72 1
64 5 -3 7 -13 4 -23 -5 -15 -5 -16 5 -1 8 13 7 24 -3 43 -7 14 -16 23 -19 19
-4 -3 -7 -1 -7 5 0 16 30 31 61 32 24 0 27 -5 33 -46z m-844 -93 c14 -27 14
-29 -21 -46 -36 -19 -34 -20 -42 22 -5 25 -2 33 11 36 33 9 41 7 52 -12z m665
-326 c-31 -15 -519 -123 -590 -131 -95 -11 22 21 300 81 310 67 336 71 290 50z
m-35 -55 c-14 -4 -34 -8 -45 -8 -16 0 -15 2 5 8 14 4 34 8 45 8 16 0 15 -2 -5
-8z m-75 -16 c-5 -2 -116 -26 -245 -54 -129 -27 -246 -53 -260 -56 -14 -3 -22
-2 -18 1 8 9 483 113 513 113 11 0 16 -1 10 -4z m32 -40 c-3 -3 -12 -4 -19 -1
-8 3 -5 6 6 6 11 1 17 -2 13 -5z m80 -33 c-22 -11 -47 -17 -60 -13 -18 5 -14
8 23 18 67 18 79 16 37 -5z m117 10 c7 -10 -22 -37 -30 -28 -9 8 3 37 15 37 5
0 12 -4 15 -9z m-567 -57 c-3 -3 -12 -4 -19 -1 -8 3 -5 6 6 6 11 1 17 -2 13
-5z m-40 -10 c-3 -3 -12 -4 -19 -1 -8 3 -5 6 6 6 11 1 17 -2 13 -5z m-50 -10
c-3 -3 -12 -4 -19 -1 -8 3 -5 6 6 6 11 1 17 -2 13 -5z m-40 -10 c-3 -3 -12 -4
-19 -1 -8 3 -5 6 6 6 11 1 17 -2 13 -5z"/>
<path d="M1367 1877 c-8 -21 6 -38 23 -27 13 8 13 11 -1 25 -14 14 -17 14 -22
2z"/>
<path d="M1197 1853 c-17 -17 -5 -42 22 -48 46 -10 110 -61 143 -116 19 -30
38 -49 49 -49 28 0 23 -29 -6 -42 -31 -14 -31 -20 0 -65 13 -21 32 -71 41
-112 21 -99 34 -111 34 -34 0 90 -19 212 -40 261 -23 51 -109 145 -169 184
-46 28 -62 33 -74 21z"/>
<path d="M1398 1832 c-30 -18 -38 -38 -12 -28 37 14 141 -58 164 -114 10 -25
18 -30 46 -30 37 0 43 10 19 30 -8 7 -15 17 -15 22 0 12 -60 100 -74 110 -7 5
-7 8 -1 8 6 0 3 5 -5 10 -23 15 -92 10 -122 -8z"/>
<path d="M945 1771 c-7 -23 3 -51 19 -51 16 0 16 58 0 64 -7 3 -16 -3 -19 -13z"/>
<path d="M1154 1768 c-4 -6 -2 -14 4 -16 7 -2 12 -11 12 -20 0 -15 1 -15 16 0
9 9 14 24 11 32 -7 19 -33 21 -43 4z"/>
<path d="M1044 1744 c3 -9 6 -20 6 -25 0 -5 5 -9 11 -9 5 0 8 4 4 9 -3 5 -1
12 5 16 17 11 11 25 -11 25 -15 0 -19 -4 -15 -16z"/>
<path d="M300 1720 c6 -11 8 -33 5 -50 -4 -25 -1 -32 17 -39 21 -8 20 -9 -17
-20 -50 -14 -58 -14 -50 -1 4 6 11 8 16 5 12 -8 11 3 -3 64 -6 28 -17 51 -24
51 -21 0 -26 -19 -10 -36 9 -8 16 -21 16 -27 0 -8 -3 -8 -9 1 -16 26 -20 -26
-5 -75 10 -31 13 -65 8 -96 -5 -42 -4 -46 12 -40 11 4 15 3 10 -5 -3 -6 -2
-13 4 -17 5 -3 10 -1 10 6 0 7 3 10 6 7 3 -4 1 -16 -6 -27 -10 -19 -8 -21 18
-21 55 0 85 -46 102 -154 13 -87 8 -121 -22 -153 -19 -21 -20 -23 -4 -23 10 0
29 9 43 19 13 11 31 17 39 14 8 -3 24 3 34 12 11 10 20 14 20 9 0 -5 5 -2 10
6 10 14 9 -16 -5 -146 -3 -25 1 -57 10 -78 19 -44 19 -52 0 -36 -8 6 -19 9
-25 5 -15 -9 -12 -25 4 -19 15 6 42 -49 31 -65 -13 -23 -24 -10 -18 22 3 17 2
29 -2 25 -14 -13 -14 -56 0 -68 10 -8 29 -8 71 -1 72 14 85 25 18 16 -39 -6
-51 -4 -51 6 0 8 -3 24 -7 36 -6 18 -4 22 7 17 8 -3 21 2 30 10 13 14 15 13
21 -6 7 -30 19 -15 18 22 0 16 4 32 9 35 24 15 1 515 -24 515 -5 0 -7 -12 -3
-27 3 -16 3 -22 0 -15 -3 6 -15 12 -27 12 -11 0 -17 3 -14 7 4 3 3 11 -2 17
-21 28 -19 42 7 44 33 3 42 12 14 13 -39 2 -43 4 -52 19 -15 24 -12 37 11 43
15 4 20 11 15 21 -21 53 -21 52 -3 37 9 -7 17 -10 17 -6 0 4 8 1 17 -6 12 -10
11 -5 -4 17 -12 17 -30 37 -39 45 -16 13 -16 12 -5 -8 12 -24 8 -29 -12 -13
-106 87 -163 120 -207 120 -27 0 -30 -2 -20 -20z m-50 -80 c0 -5 -5 -10 -11
-10 -5 0 -7 5 -4 10 3 6 8 10 11 10 2 0 4 -4 4 -10z m191 -54 c1 -6 1 -16 0
-23 -1 -7 9 -19 23 -28 23 -15 26 -45 5 -45 -8 0 -39 53 -66 112 l-12 28 25
-16 c13 -9 25 -21 25 -28z m-44 -83 c5 -69 -9 -99 -32 -69 -18 24 -20 117 -3
134 19 19 31 -3 35 -65z m119 -34 c3 -6 1 -15 -6 -19 -7 -4 -9 -13 -5 -20 6
-9 9 -9 16 1 7 11 9 10 9 -3 0 -10 -10 -22 -21 -29 -15 -8 -19 -8 -15 0 4 6 3
18 -2 27 -17 31 6 72 24 43z m17 -104 c-10 -13 -22 -25 -27 -25 -5 0 -3 7 4
15 10 12 10 15 -1 16 -8 1 -3 5 11 9 14 4 26 8 28 9 2 1 -5 -10 -15 -24z m46
-88 c-1 -40 -2 -40 -9 -12 -11 44 -11 67 0 60 6 -3 9 -25 9 -48z m-54 -3 c9
-50 0 -53 -13 -4 -5 22 -6 40 -2 40 4 0 11 -16 15 -36z m62 -226 c-2 -18 -4
-4 -4 32 0 36 2 50 4 33 2 -18 2 -48 0 -65z m39 -85 c-10 -10 -19 5 -10 18 6
11 8 11 12 0 2 -7 1 -15 -2 -18z m-41 -58 c6 -30 6 -30 -10 4 -17 38 -19 49
-6 36 5 -6 12 -23 16 -40z"/>
<path d="M367 1533 c-4 -3 -7 -21 -7 -40 0 -23 5 -33 15 -33 11 0 15 11 15 40
0 38 -8 49 -23 33z"/>
<path d="M2038 1723 c7 -3 16 -2 19 1 4 3 -2 6 -13 5 -11 0 -14 -3 -6 -6z"/>
<path d="M1988 1713 c6 -2 18 -2 25 0 6 3 1 5 -13 5 -14 0 -19 -2 -12 -5z"/>
<path d="M280 1696 c0 -9 5 -16 10 -16 6 0 10 4 10 9 0 6 -4 13 -10 16 -5 3
-10 -1 -10 -9z"/>
<path d="M1928 1703 c6 -2 18 -2 25 0 6 3 1 5 -13 5 -14 0 -19 -2 -12 -5z"/>
<path d="M1540 1629 c0 -5 4 -8 9 -5 38 24 100 -222 85 -337 -4 -26 -17 -64
-30 -83 -32 -47 -30 -57 12 -75 l36 -16 -45 -42 c-25 -23 -59 -53 -77 -66
l-32 -23 39 -26 c34 -22 43 -25 73 -16 28 8 37 7 46 -5 7 -9 14 -12 15 -8 2 5
156 42 341 83 213 47 338 79 338 87 0 16 -40 43 -62 43 -10 0 -18 -7 -18 -15
0 -8 -7 -15 -16 -15 -8 0 -12 5 -9 10 9 15 7 14 -192 -31 -154 -36 -182 -45
-187 -62 -4 -17 -7 -18 -20 -7 -11 8 -30 10 -62 5 -44 -6 -46 -5 -41 14 6 24
3 25 -24 11 -17 -10 -19 -7 -19 22 0 36 -15 67 -26 55 -14 -14 -33 14 -24 37
4 12 13 65 20 116 6 57 16 98 24 102 29 17 -11 225 -48 250 -17 12 -106 9
-106 -3z m135 -129 c5 -36 4 -52 -3 -45 -5 6 -13 37 -16 70 -8 75 9 53 19 -25z"/>
<path d="M1510 1584 c0 -8 5 -12 10 -9 6 3 10 10 10 16 0 5 -4 9 -10 9 -5 0
-10 -7 -10 -16z"/>
<path d="M1991 1573 c-14 -3 -34 -11 -45 -18 -19 -13 -101 -32 -117 -27 -4 1
-9 -8 -12 -18 -6 -25 6 -25 108 -4 42 9 79 13 82 10 4 -3 -3 -6 -14 -6 -11 0
-26 -7 -33 -15 -6 -8 -38 -20 -71 -26 -48 -9 -59 -15 -59 -31 0 -15 4 -18 18
-13 25 10 84 24 104 25 11 0 15 -5 12 -14 -6 -15 -107 -42 -122 -32 -5 3 -10
-19 -11 -49 -2 -51 8 -70 24 -45 3 6 15 10 27 10 11 0 22 8 25 20 3 11 10 17
16 13 6 -3 7 -1 3 5 -4 7 -22 12 -39 13 -22 1 -12 5 33 14 83 17 92 17 55 0
-16 -7 -24 -14 -17 -14 6 -1 12 -7 12 -15 0 -10 10 -14 30 -14 l30 1 -1 119
c-1 65 -4 117 -8 117 -3 -1 -17 -4 -30 -6z m16 -119 c-3 -3 -12 -4 -19 -1 -8
3 -5 6 6 6 11 1 17 -2 13 -5z"/>
<path d="M620 1496 c0 -2 7 -9 15 -16 9 -7 15 -8 15 -2 0 5 -7 12 -15 16 -8 3
-15 4 -15 2z"/>
<path d="M1480 1280 c0 -22 -4 -40 -10 -40 -5 0 -10 -15 -9 -32 0 -27 2 -29 8
-13 5 11 7 23 5 26 -2 4 3 9 11 13 17 6 22 86 5 86 -5 0 -10 -18 -10 -40z"/>
<path d="M1543 1270 c-18 -8 -23 -17 -23 -48 0 -36 2 -39 29 -40 24 0 30 5 40
37 6 21 11 43 11 50 0 13 -26 13 -57 1z"/>
<path d="M1410 1124 c-18 -25 -46 -50 -61 -56 -16 -5 -26 -14 -23 -20 4 -6 -2
-8 -17 -4 -19 6 -21 5 -7 -4 9 -5 35 -11 57 -12 57 -2 75 -25 27 -34 -45 -8
-37 -24 13 -24 35 0 39 3 49 38 6 20 14 66 18 102 7 62 6 64 -11 50 -11 -9
-16 -10 -11 -2 17 29 -3 8 -34 -34z"/>
<path d="M250 1026 c7 -7 14 -6 21 1 9 9 7 12 -9 10 -14 -1 -18 -5 -12 -11z"/>
<path d="M282 1020 c-13 -21 -6 -25 18 -10 10 6 12 12 5 19 -7 7 -14 4 -23 -9z"/>
<path d="M2180 1000 c-85 -21 -235 -57 -332 -80 -167 -40 -177 -43 -167 -61
12 -23 109 -86 124 -80 9 3 32 7 63 10 7 0 11 5 8 9 -3 5 9 6 26 4 21 -3 29
-1 24 7 -4 7 -2 9 8 5 8 -3 41 1 73 10 32 8 96 24 143 35 212 48 358 81 393
87 20 3 37 9 37 13 0 3 -20 19 -46 35 -39 25 -51 28 -93 22 -37 -5 -51 -3 -61
9 -16 20 -19 19 -200 -25z m294 -6 c24 -9 19 -21 -10 -28 -28 -7 -64 0 -64 14
0 5 10 11 23 13 12 2 25 5 29 6 3 0 13 -2 22 -5z m-317 -100 c-3 -3 -12 -4
-19 -1 -8 3 -5 6 6 6 11 1 17 -2 13 -5z m-322 -56 c14 -6 25 -15 25 -20 0 -11
-47 -10 -71 2 -45 25 -4 41 46 18z"/>
<path d="M429 867 c30 -31 57 -55 59 -52 6 6 -30 85 -40 86 -4 1 -16 2 -25 3
-10 1 -25 5 -33 10 -8 5 9 -16 39 -47z"/>
</g>
</svg>
